<svg xmlns="http://www.w3.org/2000/svg" xmlns:xlink="http://www.w3.org/1999/xlink" width="500" zoomAndPan="magnify" viewBox="0 0 375 374.999991" height="500" preserveAspectRatio="xMidYMid meet" version="1.0"><path fill="#ffffff" d="M 251.210938 7.914062 C 251.210938 11.835938 248.023438 15.019531 244.097656 15.019531 L 25.933594 15.019531 L 146.65625 135.6875 C 149.429688 138.464844 149.429688 142.964844 146.65625 145.738281 C 143.878906 148.515625 139.375 148.515625 136.597656 145.738281 L 3.730469 12.9375 C 1.695312 10.90625 1.085938 7.851562 2.1875 5.191406 C 3.289062 2.539062 5.882812 0.804688 8.757812 0.804688 L 244.097656 0.804688 C 248.023438 0.804688 251.210938 3.984375 251.210938 7.914062 Z M 375.1875 367.050781 C 375.1875 370.972656 372.003906 374.15625 368.074219 374.15625 L 120.121094 374.15625 C 117.242188 374.15625 114.648438 372.425781 113.546875 369.769531 C 112.445312 367.113281 113.054688 364.054688 115.089844 362.023438 L 239.070312 238.105469 C 241.84375 235.332031 246.351562 235.332031 249.125 238.105469 C 251.90625 240.882812 251.90625 245.382812 249.125 248.160156 L 137.289062 359.941406 L 368.074219 359.941406 C 372.003906 359.941406 375.1875 363.125 375.1875 367.050781 Z M 375.1875 7.914062 C 375.1875 9.730469 374.492188 11.550781 373.105469 12.9375 L 13.789062 372.074219 C 11.011719 374.851562 6.507812 374.851562 3.730469 372.074219 C 0.953125 369.296875 0.953125 364.800781 3.730469 362.023438 L 363.046875 2.886719 C 365.824219 0.109375 370.328125 0.109375 373.105469 2.886719 C 374.492188 4.277344 375.1875 6.097656 375.1875 7.914062 " fill-opacity="1" fill-rule="nonzero"/></svg>